<svg width="30" height="30" viewBox="0 0 30 30" fill="none" xmlns="http://www.w3.org/2000/svg">
<path fill-rule="evenodd" clip-rule="evenodd" d="M14.5352 6.00435C13.5135 5.94416 12.5584 6.51271 12.1242 7.43945L11.5666 8.62969H10.103C9.55074 8.62969 9.10303 9.0774 9.10303 9.62969V21.1879C9.10303 21.7402 9.55074 22.1879 10.103 22.1879H18.9496C19.5019 22.1879 19.9496 21.7402 19.9496 21.1879V9.62969C19.9496 9.0774 19.5019 8.62969 18.9496 8.62969H17.6284L16.7947 7.23356C16.3703 6.5229 15.6216 6.06837 14.7953 6.01968L14.5352 6.00435ZM11.0982 9.62969L11.074 9.68122H11.8604H17.3754H18.2563L18.2256 9.62969H18.9496L18.9496 21.1879L10.103 21.1879L10.103 9.62969H11.0982ZM16.4636 8.62969L15.9361 7.74628C15.6815 7.31988 15.2323 7.04716 14.7365 7.01795L14.4764 7.00262C13.8634 6.9665 13.2903 7.30763 13.0298 7.86368L12.6709 8.62969H16.4636Z" fill="#ED4537"/>
<path d="M12.1242 7.43945L12.3506 7.54551L12.3506 7.54551L12.1242 7.43945ZM14.5352 6.00435L14.5205 6.25392L14.5205 6.25392L14.5352 6.00435ZM11.5666 8.62969V8.87969H11.7256L11.793 8.73574L11.5666 8.62969ZM17.6284 8.62969L17.4138 8.75787L17.4865 8.87969H17.6284V8.62969ZM16.7947 7.23356L16.58 7.36174L16.58 7.36174L16.7947 7.23356ZM14.7953 6.01968L14.81 5.77011L14.81 5.77011L14.7953 6.01968ZM11.074 9.68122L10.8476 9.57516L10.6808 9.93122H11.074V9.68122ZM11.0982 9.62969L11.3246 9.73574L11.4914 9.37969H11.0982V9.62969ZM18.2563 9.68122V9.93122H18.6968L18.471 9.55304L18.2563 9.68122ZM18.2256 9.62969V9.37969H17.7851L18.0109 9.75787L18.2256 9.62969ZM18.9496 9.62969L19.1996 9.62969L19.1996 9.37969H18.9496V9.62969ZM18.9496 21.1879L18.9496 21.4379L19.1996 21.4379L19.1996 21.1879L18.9496 21.1879ZM10.103 21.1879L9.85303 21.1879L9.85303 21.4379L10.103 21.4379L10.103 21.1879ZM10.103 9.62969V9.37969H9.85303L9.85303 9.62969L10.103 9.62969ZM16.4636 8.62969V8.87969H16.9041L16.6783 8.50151L16.4636 8.62969ZM15.9361 7.74628L15.7215 7.87446L15.7215 7.87446L15.9361 7.74628ZM14.7365 7.01795L14.7512 6.76838L14.7512 6.76838L14.7365 7.01795ZM14.4764 7.00262L14.4616 7.25219L14.4764 7.00262ZM13.0298 7.86368L12.8034 7.75763L12.8034 7.75763L13.0298 7.86368ZM12.6709 8.62969L12.4446 8.52363L12.2777 8.87969H12.6709V8.62969ZM12.3506 7.54551C12.7414 6.71144 13.601 6.19974 14.5205 6.25392L14.5499 5.75479C13.4261 5.68857 12.3754 6.31398 11.8978 7.3334L12.3506 7.54551ZM11.793 8.73574L12.3506 7.54551L11.8978 7.3334L11.3403 8.52363L11.793 8.73574ZM11.5666 8.37969H10.103V8.87969H11.5666V8.37969ZM10.103 8.37969C9.41267 8.37969 8.85303 8.93933 8.85303 9.62969H9.35303C9.35303 9.21547 9.68881 8.87969 10.103 8.87969V8.37969ZM8.85303 9.62969V21.1879H9.35303V9.62969H8.85303ZM8.85303 21.1879C8.85303 21.8783 9.41267 22.4379 10.103 22.4379V21.9379C9.68881 21.9379 9.35303 21.6021 9.35303 21.1879H8.85303ZM10.103 22.4379H18.9496V21.9379H10.103V22.4379ZM18.9496 22.4379C19.64 22.4379 20.1996 21.8783 20.1996 21.1879H19.6996C19.6996 21.6021 19.3638 21.9379 18.9496 21.9379V22.4379ZM20.1996 21.1879V9.62969H19.6996V21.1879H20.1996ZM20.1996 9.62969C20.1996 8.93933 19.64 8.37969 18.9496 8.37969V8.87969C19.3638 8.87969 19.6996 9.21547 19.6996 9.62969H20.1996ZM18.9496 8.37969H17.6284V8.87969H18.9496V8.37969ZM16.58 7.36174L17.4138 8.75787L17.843 8.50151L17.0093 7.10538L16.58 7.36174ZM14.7806 6.26925C15.5243 6.31307 16.1981 6.72214 16.58 7.36174L17.0093 7.10538C16.5425 6.32365 15.7189 5.82367 14.81 5.77011L14.7806 6.26925ZM14.5205 6.25392L14.7806 6.26925L14.81 5.77011L14.5499 5.75479L14.5205 6.25392ZM11.3004 9.78728L11.3246 9.73574L10.8718 9.52363L10.8476 9.57516L11.3004 9.78728ZM11.8604 9.43122H11.074V9.93122H11.8604V9.43122ZM17.3754 9.43122H11.8604V9.93122H17.3754V9.43122ZM18.2563 9.43122H17.3754V9.93122H18.2563V9.43122ZM18.0109 9.75787L18.0417 9.8094L18.471 9.55304L18.4402 9.50151L18.0109 9.75787ZM18.9496 9.37969H18.2256V9.87969H18.9496V9.37969ZM19.1996 21.1879L19.1996 9.62969L18.6996 9.62969L18.6996 21.1879L19.1996 21.1879ZM10.103 21.4379L18.9496 21.4379L18.9496 20.9379L10.103 20.9379L10.103 21.4379ZM9.85303 9.62969L9.85303 21.1879L10.353 21.1879L10.353 9.62969L9.85303 9.62969ZM11.0982 9.37969H10.103V9.87969H11.0982V9.37969ZM16.6783 8.50151L16.1507 7.6181L15.7215 7.87446L16.249 8.75787L16.6783 8.50151ZM16.1507 7.6181C15.8537 7.12063 15.3296 6.80246 14.7512 6.76838L14.7218 7.26752C15.1349 7.29186 15.5093 7.51912 15.7215 7.87446L16.1507 7.6181ZM14.7512 6.76838L14.4911 6.75305L14.4616 7.25219L14.7218 7.26752L14.7512 6.76838ZM14.4911 6.75305C13.7759 6.71092 13.1073 7.1089 12.8034 7.75763L13.2562 7.96974C13.4733 7.50637 13.9508 7.22209 14.4616 7.25219L14.4911 6.75305ZM12.8034 7.75763L12.4446 8.52363L12.8973 8.73574L13.2562 7.96974L12.8034 7.75763ZM16.4636 8.37969H12.6709V8.87969H16.4636V8.37969Z" fill="#ED4537"/>
<path d="M20.6844 8.62964H8.5515C8.24691 8.62964 8 8.87655 8 9.18114C8 9.48572 8.24691 9.73263 8.5515 9.73263H20.6844C20.989 9.73263 21.2359 9.48572 21.2359 9.18114C21.2359 8.87655 20.989 8.62964 20.6844 8.62964Z" fill="#ED4537" stroke="#ED4537" stroke-width="0.5"/>
</svg>
