<svg width="30" height="30" viewBox="0 0 30 30" fill="none" xmlns="http://www.w3.org/2000/svg">
<path fill-rule="evenodd" clip-rule="evenodd" d="M14.4449 7.83289C12.4631 5.98571 9.287 7.81943 9.89578 10.4593C10.0429 11.0971 9.67166 11.7401 9.04579 11.9316C6.45517 12.7243 6.45517 16.3917 9.04579 17.1845C9.67167 17.376 10.0429 18.0189 9.89578 18.6567C9.287 21.2966 12.4631 23.1303 14.4449 21.2832C14.9237 20.8369 15.6661 20.8369 16.1449 21.2832C18.1268 23.1303 21.3028 21.2966 20.6941 18.6567C20.547 18.0189 20.9182 17.376 21.5441 17.1845C24.1347 16.3917 24.1347 12.7243 21.5441 11.9316C20.9182 11.7401 20.547 11.0971 20.6941 10.4593C21.3028 7.81943 18.1268 5.98571 16.1449 7.83289C15.6661 8.27916 14.9237 8.27916 14.4449 7.83289ZM11.3574 10.1223C11.0811 8.92406 12.5227 8.09177 13.4222 8.93017C14.4771 9.91339 16.1127 9.91339 17.1676 8.93017C18.0672 8.09177 19.5087 8.92406 19.2324 10.1223C18.9084 11.5275 19.7262 12.944 21.1051 13.3659C22.281 13.7257 22.281 15.3903 21.1051 15.7501C19.7262 16.1721 18.9084 17.5886 19.2324 18.9938C19.5087 20.192 18.0672 21.0243 17.1676 20.1859C16.1127 19.2027 14.4771 19.2027 13.4222 20.1859C12.5227 21.0243 11.0811 20.192 11.3574 18.9938C11.6815 17.5886 10.8636 16.1721 9.4847 15.7501C8.30886 15.3903 8.30886 13.7257 9.4847 13.3659C10.8636 12.944 11.6815 11.5275 11.3574 10.1223ZM16.9989 13.5742C17.5421 14.5151 17.2197 15.7183 16.2788 16.2615C15.3379 16.8048 14.1347 16.4824 13.5915 15.5414C13.0482 14.6005 13.3706 13.3973 14.3115 12.8541C15.2525 12.3109 16.4556 12.6332 16.9989 13.5742ZM17.9515 13.0242C18.7985 14.4912 18.2959 16.3671 16.8288 17.2141C15.3617 18.0612 13.4858 17.5585 12.6388 16.0914C11.7918 14.6244 12.2945 12.7485 13.7615 11.9015C15.2286 11.0545 17.1045 11.5571 17.9515 13.0242Z" fill="white"/>
</svg>
